<svg width="580" height="47" viewBox="0 0 580 47" fill="none" xmlns="http://www.w3.org/2000/svg">
<path d="M0.937 46V1.2H11.305V46H0.937ZM21.937 46V1.2H30.513L49.585 32.816H45.041L63.793 1.2H72.305L72.433 46H62.705L62.641 16.112H64.433L49.457 41.264H44.785L29.489 16.112H31.665V46H21.937ZM83.062 46V1.2H103.414C108.278 1.2 112.566 2.13866 116.278 4.016C119.99 5.85066 122.891 8.432 124.982 11.76C127.073 15.088 128.118 19.0347 128.118 23.6C128.118 28.1227 127.073 32.0693 124.982 35.44C122.891 38.768 119.99 41.3707 116.278 43.248C112.566 45.0827 108.278 46 103.414 46H83.062ZM93.43 37.488H102.902C105.889 37.488 108.47 36.9333 110.646 35.824C112.865 34.672 114.571 33.0507 115.766 30.96C117.003 28.8693 117.622 26.416 117.622 23.6C117.622 20.7413 117.003 18.288 115.766 16.24C114.571 14.1493 112.865 12.5493 110.646 11.44C108.47 10.288 105.889 9.712 102.902 9.712H93.43V37.488ZM135.937 46V1.2H157.825C163.457 1.2 167.681 2.26666 170.497 4.4C173.356 6.53333 174.785 9.34933 174.785 12.848C174.785 15.1947 174.209 17.2427 173.057 18.992C171.905 20.6987 170.326 22.0213 168.321 22.96C166.316 23.8987 164.012 24.368 161.409 24.368L162.625 21.744C165.441 21.744 167.937 22.2133 170.113 23.152C172.289 24.048 173.974 25.392 175.169 27.184C176.406 28.976 177.025 31.1733 177.025 33.776C177.025 37.616 175.51 40.624 172.481 42.8C169.452 44.9333 164.993 46 159.105 46H135.937ZM146.241 38.192H158.337C161.025 38.192 163.052 37.7653 164.417 36.912C165.825 36.016 166.529 34.608 166.529 32.688C166.529 30.8107 165.825 29.424 164.417 28.528C163.052 27.5893 161.025 27.12 158.337 27.12H145.473V19.568H156.545C159.062 19.568 160.982 19.1413 162.305 18.288C163.67 17.392 164.353 16.048 164.353 14.256C164.353 12.5067 163.67 11.2053 162.305 10.352C160.982 9.456 159.062 9.008 156.545 9.008H146.241V38.192ZM203 46V1.2H211.576L230.648 32.816H226.104L244.856 1.2H253.368L253.496 46H243.768L243.704 16.112H245.496L230.52 41.264H225.848L210.552 16.112H212.728V46H203ZM285.885 46.768C282.343 46.768 279.058 46.192 276.029 45.04C273.042 43.888 270.439 42.2667 268.22 40.176C266.045 38.0853 264.338 35.632 263.101 32.816C261.906 30 261.309 26.928 261.309 23.6C261.309 20.272 261.906 17.2 263.101 14.384C264.338 11.568 266.066 9.11467 268.285 7.024C270.503 4.93333 273.106 3.312 276.093 2.16C279.079 1.008 282.322 0.431999 285.821 0.431999C289.362 0.431999 292.604 1.008 295.549 2.16C298.535 3.312 301.117 4.93333 303.293 7.024C305.511 9.11467 307.239 11.568 308.477 14.384C309.714 17.1573 310.333 20.2293 310.333 23.6C310.333 26.928 309.714 30.0213 308.477 32.88C307.239 35.696 305.511 38.1493 303.293 40.24C301.117 42.288 298.535 43.888 295.549 45.04C292.604 46.192 289.383 46.768 285.885 46.768ZM285.821 37.936C287.826 37.936 289.661 37.5947 291.325 36.912C293.031 36.2293 294.525 35.248 295.805 33.968C297.085 32.688 298.066 31.1733 298.749 29.424C299.474 27.6747 299.837 25.7333 299.837 23.6C299.837 21.4667 299.474 19.5253 298.749 17.776C298.066 16.0267 297.085 14.512 295.805 13.232C294.567 11.952 293.095 10.9707 291.389 10.288C289.682 9.60533 287.826 9.264 285.821 9.264C283.815 9.264 281.959 9.60533 280.253 10.288C278.589 10.9707 277.117 11.952 275.837 13.232C274.557 14.512 273.554 16.0267 272.829 17.776C272.146 19.5253 271.805 21.4667 271.805 23.6C271.805 25.6907 272.146 27.632 272.829 29.424C273.554 31.1733 274.535 32.688 275.773 33.968C277.053 35.248 278.546 36.2293 280.253 36.912C281.959 37.5947 283.815 37.936 285.821 37.936ZM330.127 46L310.799 1.2H321.999L338.895 40.88H332.303L349.455 1.2H359.759L340.367 46H330.127ZM363.5 46V1.2H373.868V46H363.5ZM394.036 19.248H415.604V27.312H394.036V19.248ZM394.804 37.68H419.188V46H384.5V1.2H418.356V9.52H394.804V37.68ZM439.674 46L459.642 1.2H469.882L489.914 46H479.034L462.65 6.448H466.746L450.298 46H439.674ZM449.658 36.4L452.41 28.528H475.45L478.266 36.4H449.658ZM494.562 46V1.2H513.954C517.965 1.2 521.421 1.86133 524.322 3.184C527.223 4.464 529.463 6.32 531.042 8.752C532.621 11.184 533.41 14.0853 533.41 17.456C533.41 20.784 532.621 23.664 531.042 26.096C529.463 28.528 527.223 30.4053 524.322 31.728C521.421 33.008 517.965 33.648 513.954 33.648H500.322L504.93 28.976V46H494.562ZM504.93 30.128L500.322 25.2H513.378C516.578 25.2 518.967 24.5173 520.546 23.152C522.125 21.7867 522.914 19.888 522.914 17.456C522.914 14.9813 522.125 13.0613 520.546 11.696C518.967 10.3307 516.578 9.648 513.378 9.648H500.322L504.93 4.72V30.128ZM540.812 46V1.2H560.204C564.215 1.2 567.671 1.86133 570.572 3.184C573.473 4.464 575.713 6.32 577.292 8.752C578.871 11.184 579.66 14.0853 579.66 17.456C579.66 20.784 578.871 23.664 577.292 26.096C575.713 28.528 573.473 30.4053 570.572 31.728C567.671 33.008 564.215 33.648 560.204 33.648H546.572L551.18 28.976V46H540.812ZM551.18 30.128L546.572 25.2H559.628C562.828 25.2 565.217 24.5173 566.796 23.152C568.375 21.7867 569.164 19.888 569.164 17.456C569.164 14.9813 568.375 13.0613 566.796 11.696C565.217 10.3307 562.828 9.648 559.628 9.648H546.572L551.18 4.72V30.128Z" fill="#242A32"/>
<path d="M0.937012 46H-0.0629883V47H0.937012V46ZM0.937012 1.2V0.199997H-0.0629883V1.2H0.937012ZM11.305 1.2H12.305V0.199997H11.305V1.2ZM11.305 46V47H12.305V46H11.305ZM1.93701 46V1.2H-0.0629883V46H1.93701ZM0.937012 2.2H11.305V0.199997H0.937012V2.2ZM10.305 1.2V46H12.305V1.2H10.305ZM11.305 45H0.937012V47H11.305V45ZM21.937 46H20.937V47H21.937V46ZM21.937 1.2V0.199997H20.937V1.2H21.937ZM30.513 1.2L31.3693 0.683464L31.0776 0.199997H30.513V1.2ZM49.585 32.816V33.816H51.3561L50.4413 32.2995L49.585 32.816ZM45.041 32.816L44.1809 32.3059L43.2852 33.816H45.041V32.816ZM63.793 1.2V0.199997H63.2234L62.9329 0.689861L63.793 1.2ZM72.305 1.2L73.305 1.19714L73.3021 0.199997H72.305V1.2ZM72.433 46V47H73.4359L73.433 45.9971L72.433 46ZM62.705 46L61.705 46.0021L61.7072 47H62.705V46ZM62.641 16.112V15.112H61.6389L61.641 16.1141L62.641 16.112ZM64.433 16.112L65.2922 16.6236L66.1923 15.112H64.433V16.112ZM49.457 41.264V42.264H50.0255L50.3162 41.7756L49.457 41.264ZM44.785 41.264L43.9306 41.7836L44.2227 42.264H44.785V41.264ZM29.489 16.112V15.112H27.7104L28.6346 16.6316L29.489 16.112ZM31.665 16.112H32.665V15.112H31.665V16.112ZM31.665 46V47H32.665V46H31.665ZM22.937 46V1.2H20.937V46H22.937ZM21.937 2.2H30.513V0.199997H21.937V2.2ZM29.6567 1.71653L48.7288 33.3325L50.4413 32.2995L31.3693 0.683464L29.6567 1.71653ZM49.585 31.816H45.041V33.816H49.585V31.816ZM45.9011 33.3261L64.6531 1.71013L62.9329 0.689861L44.1809 32.3059L45.9011 33.3261ZM63.793 2.2H72.305V0.199997H63.793V2.2ZM71.305 1.20285L71.433 46.0029L73.433 45.9971L73.305 1.19714L71.305 1.20285ZM72.433 45H62.705V47H72.433V45ZM63.705 45.9979L63.641 16.1099L61.641 16.1141L61.705 46.0021L63.705 45.9979ZM62.641 17.112H64.433V15.112H62.641V17.112ZM63.5738 15.6004L48.5978 40.7524L50.3162 41.7756L65.2922 16.6236L63.5738 15.6004ZM49.457 40.264H44.785V42.264H49.457V40.264ZM45.6394 40.7444L30.3434 15.5924L28.6346 16.6316L43.9306 41.7836L45.6394 40.7444ZM29.489 17.112H31.665V15.112H29.489V17.112ZM30.665 16.112V46H32.665V16.112H30.665ZM31.665 45H21.937V47H31.665V45ZM83.062 46H82.062V47H83.062V46ZM83.062 1.2V0.199997H82.062V1.2H83.062ZM116.278 4.016L115.827 4.9084L115.835 4.91248L116.278 4.016ZM124.982 11.76L124.135 12.2919L124.982 11.76ZM124.982 35.44L125.829 35.972L125.832 35.9671L124.982 35.44ZM116.278 43.248L116.721 44.1445L116.729 44.1404L116.278 43.248ZM93.43 37.488H92.43V38.488H93.43V37.488ZM110.646 35.824L111.1 36.7149L111.107 36.7115L110.646 35.824ZM115.766 30.96L114.905 30.4507L114.902 30.4572L114.898 30.4639L115.766 30.96ZM115.766 16.24L114.898 16.7361L114.904 16.7467L114.91 16.7571L115.766 16.24ZM110.646 11.44L110.178 12.3238L110.188 12.3292L110.199 12.3344L110.646 11.44ZM93.43 9.712V8.712H92.43V9.712H93.43ZM84.062 46V1.2H82.062V46H84.062ZM83.062 2.2H103.414V0.199997H83.062V2.2ZM103.414 2.2C108.148 2.2 112.276 3.11286 115.827 4.90837L116.729 3.12363C112.856 1.16447 108.408 0.199997 103.414 0.199997V2.2ZM115.835 4.91248C119.391 6.66985 122.148 9.12895 124.135 12.2919L125.829 11.228C123.634 7.73504 120.589 5.03148 116.721 3.11952L115.835 4.91248ZM124.135 12.2919C126.11 15.4362 127.118 19.1919 127.118 23.6H129.118C129.118 18.8775 128.035 14.7398 125.829 11.228L124.135 12.2919ZM127.118 23.6C127.118 27.9631 126.112 31.7218 124.132 34.9129L125.832 35.9671C128.034 32.4169 129.118 28.2822 129.118 23.6H127.118ZM124.135 34.9081C122.147 38.0731 119.386 40.5553 115.827 42.3556L116.729 44.1404C120.594 42.186 123.636 39.4629 125.829 35.972L124.135 34.9081ZM115.835 42.3515C112.283 44.1072 108.151 45 103.414 45V47C108.405 47 112.849 46.0582 116.721 44.1445L115.835 42.3515ZM103.414 45H83.062V47H103.414V45ZM93.43 38.488H102.902V36.488H93.43V38.488ZM102.902 38.488C106.012 38.488 108.756 37.9102 111.1 36.7149L110.192 34.9331C108.184 35.9565 105.765 36.488 102.902 36.488V38.488ZM111.107 36.7115C113.489 35.4745 115.34 33.7203 116.634 31.4561L114.898 30.4639C113.802 32.381 112.24 33.8695 110.185 34.9365L111.107 36.7115ZM116.627 31.4693C117.969 29.2013 118.622 26.5663 118.622 23.6H116.622C116.622 26.2657 116.038 28.5373 114.905 30.4507L116.627 31.4693ZM118.622 23.6C118.622 20.5948 117.97 17.9549 116.622 15.7229L114.91 16.7571C116.036 18.6211 116.622 20.8879 116.622 23.6H118.622ZM116.634 15.7439C115.339 13.4764 113.483 11.7404 111.093 10.5456L110.199 12.3344C112.247 13.3583 113.804 14.8223 114.898 16.7361L116.634 15.7439ZM111.114 10.5562C108.766 9.31327 106.017 8.712 102.902 8.712V10.712C105.76 10.712 108.174 11.2627 110.178 12.3238L111.114 10.5562ZM102.902 8.712H93.43V10.712H102.902V8.712ZM92.43 9.712V37.488H94.43V9.712H92.43ZM135.937 46H134.937V47H135.937V46ZM135.937 1.2V0.199997H134.937V1.2H135.937ZM170.497 4.4L169.893 5.19711L169.899 5.20143L170.497 4.4ZM173.057 18.992L173.886 19.5515L173.892 19.542L173.057 18.992ZM168.321 22.96L168.745 23.8657L168.321 22.96ZM161.409 24.368L160.502 23.9475L159.843 25.368H161.409V24.368ZM162.625 21.744V20.744H161.986L161.718 21.3235L162.625 21.744ZM170.113 23.152L169.717 24.0702L169.725 24.0735L169.732 24.0767L170.113 23.152ZM175.169 27.184L174.337 27.7387L174.341 27.7455L174.346 27.7522L175.169 27.184ZM172.481 42.8L173.057 43.6176L173.064 43.6122L172.481 42.8ZM146.241 38.192H145.241V39.192H146.241V38.192ZM164.417 36.912L164.947 37.76L164.954 37.7557L164.417 36.912ZM164.417 28.528L163.85 29.352L163.865 29.3621L163.88 29.3717L164.417 28.528ZM145.473 27.12H144.473V28.12H145.473V27.12ZM145.473 19.568V18.568H144.473V19.568H145.473ZM162.305 18.288L162.847 19.1283L162.854 19.124L162.305 18.288ZM162.305 10.352L161.744 11.1799L161.759 11.1902L161.775 11.2L162.305 10.352ZM146.241 9.008V8.008H145.241V9.008H146.241ZM136.937 46V1.2H134.937V46H136.937ZM135.937 2.2H157.825V0.199997H135.937V2.2ZM157.825 2.2C163.359 2.2 167.327 3.25314 169.893 5.19709L171.101 3.60291C168.035 1.28019 163.555 0.199997 157.825 0.199997V2.2ZM169.899 5.20143C172.51 7.15035 173.785 9.67212 173.785 12.848H175.785C175.785 9.02654 174.201 5.91631 171.095 3.59856L169.899 5.20143ZM173.785 12.848C173.785 15.0235 173.254 16.8752 172.222 18.442L173.892 19.542C175.164 17.6102 175.785 15.3658 175.785 12.848H173.785ZM172.228 18.4325C171.185 19.978 169.751 21.1863 167.897 22.0543L168.745 23.8657C170.901 22.8563 172.625 21.4193 173.886 19.5515L172.228 18.4325ZM167.897 22.0543C166.046 22.9209 163.891 23.368 161.409 23.368V25.368C164.133 25.368 166.586 24.8764 168.745 23.8657L167.897 22.0543ZM162.316 24.7885L163.532 22.1645L161.718 21.3235L160.502 23.9475L162.316 24.7885ZM162.625 22.744C165.33 22.744 167.687 23.1947 169.717 24.0702L170.509 22.2338C168.187 21.232 165.552 20.744 162.625 20.744V22.744ZM169.732 24.0767C171.742 24.9043 173.263 26.1275 174.337 27.7387L176.001 26.6293C174.686 24.6565 172.836 23.1917 170.494 22.2273L169.732 24.0767ZM174.346 27.7522C175.447 29.3467 176.025 31.3359 176.025 33.776H178.025C178.025 31.0108 177.366 28.6053 175.992 26.6158L174.346 27.7522ZM176.025 33.776C176.025 37.3053 174.656 40.0062 171.898 41.9878L173.064 43.6122C176.364 41.2418 178.025 37.9267 178.025 33.776H176.025ZM171.905 41.9824C169.117 43.9457 164.899 45 159.105 45V47C165.087 47 169.786 45.9209 173.057 43.6176L171.905 41.9824ZM159.105 45H135.937V47H159.105V45ZM146.241 39.192H158.337V37.192H146.241V39.192ZM158.337 39.192C161.1 39.192 163.349 38.7588 164.947 37.76L163.887 36.064C162.754 36.7719 160.95 37.192 158.337 37.192V39.192ZM164.954 37.7557C166.698 36.6459 167.529 34.8895 167.529 32.688H165.529C165.529 34.3265 164.952 35.3861 163.88 36.0683L164.954 37.7557ZM167.529 32.688C167.529 30.5193 166.69 28.7895 164.954 27.6843L163.88 29.3717C164.96 30.0585 165.529 31.1021 165.529 32.688H167.529ZM164.984 27.704C163.377 26.5994 161.112 26.12 158.337 26.12V28.12C160.938 28.12 162.726 28.5792 163.85 29.352L164.984 27.704ZM158.337 26.12H145.473V28.12H158.337V26.12ZM146.473 27.12V19.568H144.473V27.12H146.473ZM145.473 20.568H156.545V18.568H145.473V20.568ZM156.545 20.568C159.15 20.568 161.293 20.1311 162.847 19.1283L161.763 17.4477C160.672 18.1516 158.975 18.568 156.545 18.568V20.568ZM162.854 19.124C164.532 18.0229 165.353 16.3461 165.353 14.256H163.353C163.353 15.7499 162.809 16.7611 161.756 17.452L162.854 19.124ZM165.353 14.256C165.353 12.1976 164.522 10.5582 162.835 9.504L161.775 11.2C162.819 11.8524 163.353 12.8157 163.353 14.256H165.353ZM162.866 9.52408C161.307 8.4684 159.156 8.008 156.545 8.008V10.008C158.968 10.008 160.657 10.4436 161.744 11.1799L162.866 9.52408ZM156.545 8.008H146.241V10.008H156.545V8.008ZM145.241 9.008V38.192H147.241V9.008H145.241ZM203 46H202V47H203V46ZM203 1.2V0.199997H202V1.2H203ZM211.576 1.2L212.432 0.683464L212.14 0.199997H211.576V1.2ZM230.648 32.816V33.816H232.419L231.504 32.2995L230.648 32.816ZM226.104 32.816L225.243 32.3059L224.348 33.816H226.104V32.816ZM244.856 1.2V0.199997H244.286L243.995 0.689861L244.856 1.2ZM253.367 1.2L254.367 1.19714L254.365 0.199997H253.367V1.2ZM253.495 46V47H254.498L254.495 45.9971L253.495 46ZM243.768 46L242.768 46.0021L242.77 47H243.768V46ZM243.703 16.112V15.112H242.701L242.703 16.1141L243.703 16.112ZM245.495 16.112L246.355 16.6236L247.255 15.112H245.495V16.112ZM230.52 41.264V42.264H231.088L231.379 41.7756L230.52 41.264ZM225.847 41.264L224.993 41.7836L225.285 42.264H225.847V41.264ZM210.552 16.112V15.112H208.773L209.697 16.6316L210.552 16.112ZM212.727 16.112H213.727V15.112H212.727V16.112ZM212.727 46V47H213.727V46H212.727ZM204 46V1.2H202V46H204ZM203 2.2H211.576V0.199997H203V2.2ZM210.719 1.71653L229.791 33.3325L231.504 32.2995L212.432 0.683464L210.719 1.71653ZM230.648 31.816H226.104V33.816H230.648V31.816ZM226.964 33.3261L245.716 1.71013L243.995 0.689861L225.243 32.3059L226.964 33.3261ZM244.856 2.2H253.367V0.199997H244.856V2.2ZM252.367 1.20285L252.495 46.0029L254.495 45.9971L254.367 1.19714L252.367 1.20285ZM253.495 45H243.768V47H253.495V45ZM244.768 45.9979L244.703 16.1099L242.703 16.1141L242.768 46.0021L244.768 45.9979ZM243.703 17.112H245.495V15.112H243.703V17.112ZM244.636 15.6004L229.66 40.7524L231.379 41.7756L246.355 16.6236L244.636 15.6004ZM230.52 40.264H225.847V42.264H230.52V40.264ZM226.702 40.7444L211.406 15.5924L209.697 16.6316L224.993 41.7836L226.702 40.7444ZM210.552 17.112H212.727V15.112H210.552V17.112ZM211.727 16.112V46H213.727V16.112H211.727ZM212.727 45H203V47H212.727V45ZM276.029 45.04L275.669 45.973L275.673 45.9747L276.029 45.04ZM268.221 40.176L267.528 40.8971L267.535 40.9038L268.221 40.176ZM263.101 32.816L262.18 33.2066L262.185 33.2183L263.101 32.816ZM263.101 14.384L262.185 13.9817L262.18 13.9934L263.101 14.384ZM276.093 2.16L275.733 1.22699L276.093 2.16ZM295.549 2.16L295.184 3.09125L295.189 3.093L295.549 2.16ZM303.292 7.024L302.6 7.74514L302.607 7.75179L303.292 7.024ZM308.477 14.384L307.561 14.7863L307.563 14.7914L308.477 14.384ZM308.477 32.88L309.392 33.2823L309.394 33.2772L308.477 32.88ZM303.292 40.24L303.978 40.9682L303.978 40.9678L303.292 40.24ZM295.549 45.04L295.189 44.107L295.184 44.1088L295.549 45.04ZM291.325 36.912L290.953 35.9835L290.945 35.9868L291.325 36.912ZM295.805 33.968L295.097 33.2609V33.2609L295.805 33.968ZM298.748 29.424L297.825 29.041L297.821 29.0507L297.817 29.0605L298.748 29.424ZM298.748 17.776L297.817 18.1395L297.821 18.1493L297.825 18.159L298.748 17.776ZM295.805 13.232L295.086 13.927L295.091 13.9331L295.097 13.9391L295.805 13.232ZM291.388 10.288L291.017 11.2165L291.388 10.288ZM280.253 10.288L279.881 9.35949L279.873 9.36283L280.253 10.288ZM275.836 13.232L276.544 13.9391V13.9391L275.836 13.232ZM272.828 17.776L271.905 17.393L271.901 17.4027L271.897 17.4125L272.828 17.776ZM272.828 29.424L271.894 29.78L271.899 29.7936L271.905 29.807L272.828 29.424ZM275.773 33.968L275.054 34.663L275.059 34.6691L275.065 34.6751L275.773 33.968ZM280.253 36.912L279.881 37.8405L280.253 36.912ZM285.885 45.768C282.453 45.768 279.29 45.2103 276.384 44.1053L275.673 45.9747C278.826 47.1737 282.233 47.768 285.885 47.768V45.768ZM276.388 44.107C273.516 42.9993 271.026 41.4456 268.906 39.4482L267.535 40.9038C269.852 43.0877 272.567 44.7767 275.669 45.973L276.388 44.107ZM268.913 39.4549C266.834 37.4567 265.202 35.1123 264.016 32.4137L262.185 33.2183C263.474 36.1517 265.255 38.714 267.528 40.8971L268.913 39.4549ZM264.021 32.4254C262.883 29.7435 262.308 26.8057 262.308 23.6H260.308C260.308 27.0503 260.928 30.2565 262.18 33.2066L264.021 32.4254ZM262.308 23.6C262.308 20.3943 262.883 17.4565 264.021 14.7745L262.18 13.9934C260.928 16.9435 260.308 20.1497 260.308 23.6H262.308ZM264.016 14.7863C265.2 12.092 266.85 9.74961 268.97 7.75179L267.599 6.29621C265.281 8.47972 263.476 11.044 262.185 13.9817L264.016 14.7863ZM268.97 7.75179C271.09 5.75441 273.58 4.20073 276.452 3.093L275.733 1.22699C272.631 2.42326 269.916 4.11225 267.599 6.29621L268.97 7.75179ZM276.452 3.093C279.314 1.98923 282.433 1.432 285.82 1.432V-0.568001C282.21 -0.568001 278.844 0.0267658 275.733 1.22699L276.452 3.093ZM285.82 1.432C289.252 1.432 292.369 1.98982 295.184 3.09124L295.913 1.22875C292.84 0.0261803 289.472 -0.568001 285.82 -0.568001V1.432ZM295.189 3.093C298.059 4.20014 300.525 5.752 302.6 7.7451L303.985 6.30289C301.708 4.11466 299.011 2.42386 295.908 1.22699L295.189 3.093ZM302.607 7.75179C304.727 9.74961 306.377 12.092 307.561 14.7863L309.392 13.9817C308.101 11.044 306.295 8.47972 303.978 6.29621L302.607 7.75179ZM307.563 14.7914C308.737 17.4231 309.333 20.3542 309.333 23.6H311.333C311.333 20.1045 310.69 16.8916 309.39 13.9766L307.563 14.7914ZM309.333 23.6C309.333 26.8008 308.738 29.7579 307.559 32.4828L309.394 33.2772C310.689 30.2847 311.333 27.0552 311.333 23.6H309.333ZM307.561 32.4777C306.377 35.172 304.727 37.5144 302.607 39.5122L303.978 40.9678C306.295 38.7843 308.101 36.22 309.392 33.2823L307.561 32.4777ZM302.607 39.5118C300.532 41.4649 298.063 42.9982 295.189 44.107L295.908 45.973C299.007 44.7778 301.701 43.1111 303.978 40.9682L302.607 39.5118ZM295.184 44.1088C292.368 45.2107 289.272 45.768 285.885 45.768V47.768C289.495 47.768 292.841 47.1733 295.913 45.9712L295.184 44.1088ZM285.82 38.936C287.941 38.936 289.906 38.5746 291.704 37.8372L290.945 35.9868C289.414 36.6147 287.711 36.936 285.82 36.936V38.936ZM291.696 37.8405C293.526 37.1083 295.134 36.0524 296.512 34.6751L295.097 33.2609C293.915 34.4436 292.536 35.3504 290.953 35.9835L291.696 37.8405ZM296.512 34.6751C297.893 33.2937 298.949 31.6608 299.68 29.7875L297.817 29.0605C297.183 30.6859 296.276 32.0823 295.097 33.2609L296.512 34.6751ZM299.672 29.807C300.454 27.9218 300.836 25.8482 300.836 23.6H298.836C298.836 25.6185 298.494 27.4275 297.825 29.041L299.672 29.807ZM300.836 23.6C300.836 21.3518 300.454 19.2782 299.672 17.393L297.825 18.159C298.494 19.7725 298.836 21.5815 298.836 23.6H300.836ZM299.68 17.4125C298.949 15.5392 297.893 13.9063 296.512 12.5249L295.097 13.9391C296.276 15.1177 297.183 16.5141 297.817 18.1395L299.68 17.4125ZM296.523 12.537C295.185 11.1522 293.593 10.0929 291.76 9.35952L291.017 11.2165C292.597 11.8485 293.949 12.7518 295.086 13.927L296.523 12.537ZM291.76 9.35952C289.925 8.62547 287.941 8.264 285.82 8.264V10.264C287.71 10.264 289.439 10.5852 291.017 11.2165L291.76 9.35952ZM285.82 8.264C283.7 8.264 281.716 8.62547 279.881 9.35952L280.624 11.2165C282.202 10.5852 283.931 10.264 285.82 10.264V8.264ZM279.873 9.36283C278.086 10.0961 276.502 11.1518 275.129 12.5249L276.544 13.9391C277.731 12.7521 279.091 11.8452 280.632 11.2132L279.873 9.36283ZM275.129 12.5249C273.752 13.9019 272.678 15.5281 271.905 17.393L273.752 18.159C274.43 16.5252 275.361 15.1221 276.544 13.9391L275.129 12.5249ZM271.897 17.4125C271.163 19.2923 270.805 21.3591 270.805 23.6H272.805C272.805 21.5743 273.128 19.7583 273.76 18.1395L271.897 17.4125ZM270.805 23.6C270.805 25.8013 271.164 27.8645 271.894 29.78L273.763 29.068C273.127 27.3995 272.805 25.58 272.805 23.6H270.805ZM271.905 29.807C272.675 31.6648 273.724 33.2872 275.054 34.663L276.492 33.273C275.347 32.0888 274.433 30.6819 273.752 29.041L271.905 29.807ZM275.065 34.6751C276.443 36.0524 278.051 37.1083 279.881 37.8405L280.624 35.9835C279.041 35.3504 277.662 34.4436 276.48 33.2609L275.065 34.6751ZM279.881 37.8405C281.716 38.5745 283.7 38.936 285.82 38.936V36.936C283.931 36.936 282.202 36.6148 280.624 35.9835L279.881 37.8405ZM330.127 46L329.209 46.3961L329.469 47H330.127V46ZM310.799 1.2V0.199997H309.279L309.881 1.59613L310.799 1.2ZM321.999 1.2L322.919 0.808228L322.66 0.199997H321.999V1.2ZM338.895 40.88V41.88H340.408L339.815 40.4882L338.895 40.88ZM332.303 40.88L331.385 40.4832L330.781 41.88H332.303V40.88ZM349.455 1.2V0.199997H348.798L348.537 0.803221L349.455 1.2ZM359.759 1.2L360.677 1.59724L361.281 0.199997H359.759V1.2ZM340.367 46V47H341.024L341.285 46.3972L340.367 46ZM331.045 45.6039L311.717 0.803862L309.881 1.59613L329.209 46.3961L331.045 45.6039ZM310.799 2.2H321.999V0.199997H310.799V2.2ZM321.079 1.59177L337.975 41.2718L339.815 40.4882L322.919 0.808228L321.079 1.59177ZM338.895 39.88H332.303V41.88H338.895V39.88ZM333.221 41.2768L350.373 1.59677L348.537 0.803221L331.385 40.4832L333.221 41.2768ZM349.455 2.2H359.759V0.199997H349.455V2.2ZM358.841 0.802757L339.449 45.6028L341.285 46.3972L360.677 1.59724L358.841 0.802757ZM340.367 45H330.127V47H340.367V45ZM363.5 46H362.5V47H363.5V46ZM363.5 1.2V0.199997H362.5V1.2H363.5ZM373.867 1.2H374.867V0.199997H373.867V1.2ZM373.867 46V47H374.867V46H373.867ZM364.5 46V1.2H362.5V46H364.5ZM363.5 2.2H373.867V0.199997H363.5V2.2ZM372.867 1.2V46H374.867V1.2H372.867ZM373.867 45H363.5V47H373.867V45ZM394.036 19.248V18.248H393.036V19.248H394.036ZM415.604 19.248H416.604V18.248H415.604V19.248ZM415.604 27.312V28.312H416.604V27.312H415.604ZM394.036 27.312H393.036V28.312H394.036V27.312ZM394.804 37.68H393.804V38.68H394.804V37.68ZM419.188 37.68H420.188V36.68H419.188V37.68ZM419.188 46V47H420.188V46H419.188ZM384.5 46H383.5V47H384.5V46ZM384.5 1.2V0.199997H383.5V1.2H384.5ZM418.356 1.2H419.356V0.199997H418.356V1.2ZM418.356 9.52V10.52H419.356V9.52H418.356ZM394.804 9.52V8.52H393.804V9.52H394.804ZM394.036 20.248H415.604V18.248H394.036V20.248ZM414.604 19.248V27.312H416.604V19.248H414.604ZM415.604 26.312H394.036V28.312H415.604V26.312ZM395.036 27.312V19.248H393.036V27.312H395.036ZM394.804 38.68H419.188V36.68H394.804V38.68ZM418.188 37.68V46H420.188V37.68H418.188ZM419.188 45H384.5V47H419.188V45ZM385.5 46V1.2H383.5V46H385.5ZM384.5 2.2H418.356V0.199997H384.5V2.2ZM417.356 1.2V9.52H419.356V1.2H417.356ZM418.356 8.52H394.804V10.52H418.356V8.52ZM393.804 9.52V37.68H395.804V9.52H393.804ZM439.674 46L438.761 45.5929L438.133 47H439.674V46ZM459.642 1.2V0.199997H458.993L458.729 0.792891L459.642 1.2ZM469.882 1.2L470.795 0.791803L470.53 0.199997H469.882V1.2ZM489.914 46V47H491.457L490.827 45.5918L489.914 46ZM479.034 46L478.11 46.3827L478.366 47H479.034V46ZM462.65 6.448V5.448H461.153L461.726 6.8307L462.65 6.448ZM466.746 6.448L467.669 6.83198L468.245 5.448H466.746V6.448ZM450.298 46V47H450.965L451.221 46.384L450.298 46ZM449.658 36.4L448.714 36.07L448.249 37.4H449.658V36.4ZM452.41 28.528V27.528H451.7L451.466 28.198L452.41 28.528ZM475.45 28.528L476.392 28.1912L476.154 27.528H475.45V28.528ZM478.266 36.4V37.4H479.686L479.208 36.0632L478.266 36.4ZM440.587 46.4071L460.555 1.6071L458.729 0.792891L438.761 45.5929L440.587 46.4071ZM459.642 2.2H469.882V0.199997H459.642V2.2ZM468.969 1.60819L489.001 46.4082L490.827 45.5918L470.795 0.791803L468.969 1.60819ZM489.914 45H479.034V47H489.914V45ZM479.958 45.6173L463.574 6.06529L461.726 6.8307L478.11 46.3827L479.958 45.6173ZM462.65 7.448H466.746V5.448H462.65V7.448ZM465.823 6.06402L449.375 45.616L451.221 46.384L467.669 6.83198L465.823 6.06402ZM450.298 45H439.674V47H450.298V45ZM450.602 36.73L453.354 28.858L451.466 28.198L448.714 36.07L450.602 36.73ZM452.41 29.528H475.45V27.528H452.41V29.528ZM474.508 28.8648L477.324 36.7368L479.208 36.0632L476.392 28.1912L474.508 28.8648ZM478.266 35.4H449.658V37.4H478.266V35.4ZM494.562 46H493.562V47H494.562V46ZM494.562 1.2V0.199997H493.562V1.2H494.562ZM524.322 3.184L523.907 4.09397L523.918 4.09892L524.322 3.184ZM531.042 8.752L530.203 9.29647V9.29647L531.042 8.752ZM524.322 31.728L524.726 32.643L524.737 32.6379L524.322 31.728ZM500.322 33.648L499.61 32.9458L497.931 34.648H500.322V33.648ZM504.93 28.976H505.93V26.538L504.218 28.2738L504.93 28.976ZM504.93 46V47H505.93V46H504.93ZM504.93 30.128L504.2 30.811L505.93 32.6616V30.128H504.93ZM500.322 25.2V24.2H498.018L499.592 25.883L500.322 25.2ZM500.322 9.648L499.592 8.96501L498.018 10.648H500.322V9.648ZM504.93 4.72H505.93V2.18641L504.2 4.037L504.93 4.72ZM495.562 46V1.2H493.562V46H495.562ZM494.562 2.2H513.954V0.199997H494.562V2.2ZM513.954 2.2C517.857 2.2 521.165 2.84384 523.907 4.09391L524.737 2.27409C521.676 0.878822 518.072 0.199997 513.954 0.199997V2.2ZM523.918 4.09892C526.659 5.30805 528.74 7.04287 530.203 9.29647L531.881 8.20753C530.186 5.59712 527.788 3.61994 524.726 2.26908L523.918 4.09892ZM530.203 9.29647C531.66 11.5414 532.41 14.2465 532.41 17.456H534.41C534.41 13.9242 533.581 10.8266 531.881 8.20753L530.203 9.29647ZM532.41 17.456C532.41 20.62 531.662 23.3046 530.203 25.5515L531.881 26.6405C533.58 24.0234 534.41 20.948 534.41 17.456H532.41ZM530.203 25.5515C528.738 27.8081 526.653 29.5662 523.907 30.8181L524.737 32.6379C527.793 31.2444 530.188 29.2479 531.881 26.6405L530.203 25.5515ZM523.918 30.8131C521.173 32.0242 517.861 32.648 513.954 32.648V34.648C518.068 34.648 521.668 33.9918 524.726 32.6429L523.918 30.8131ZM513.954 32.648H500.322V34.648H513.954V32.648ZM501.034 34.3502L505.642 29.6782L504.218 28.2738L499.61 32.9458L501.034 34.3502ZM503.93 28.976V46H505.93V28.976H503.93ZM504.93 45H494.562V47H504.93V45ZM505.66 29.445L501.052 24.517L499.592 25.883L504.2 30.811L505.66 29.445ZM500.322 26.2H513.378V24.2H500.322V26.2ZM513.378 26.2C516.695 26.2 519.365 25.4959 521.2 23.9084L519.892 22.3956C518.57 23.5387 516.461 24.2 513.378 24.2V26.2ZM521.2 23.9084C523.036 22.3209 523.914 20.1253 523.914 17.456H521.914C521.914 19.6507 521.214 21.2524 519.892 22.3956L521.2 23.9084ZM523.914 17.456C523.914 14.7503 523.04 12.5306 521.2 10.9396L519.892 12.4524C521.21 13.5921 521.914 15.2124 521.914 17.456H523.914ZM521.2 10.9396C519.365 9.35206 516.695 8.648 513.378 8.648V10.648C516.461 10.648 518.57 11.3093 519.892 12.4524L521.2 10.9396ZM513.378 8.648H500.322V10.648H513.378V8.648ZM501.052 10.331L505.66 5.40299L504.2 4.037L499.592 8.96501L501.052 10.331ZM503.93 4.72V30.128H505.93V4.72H503.93ZM540.812 46H539.812V47H540.812V46ZM540.812 1.2V0.199997H539.812V1.2H540.812ZM570.572 3.184L570.157 4.09397L570.168 4.09892L570.572 3.184ZM577.292 8.752L576.453 9.29647V9.29647L577.292 8.752ZM570.572 31.728L570.976 32.643L570.987 32.6379L570.572 31.728ZM546.572 33.648L545.86 32.9458L544.181 34.648H546.572V33.648ZM551.18 28.976H552.18V26.538L550.468 28.2738L551.18 28.976ZM551.18 46V47H552.18V46H551.18ZM551.18 30.128L550.45 30.811L552.18 32.6616V30.128H551.18ZM546.572 25.2V24.2H544.268L545.842 25.883L546.572 25.2ZM546.572 9.648L545.842 8.96501L544.268 10.648H546.572V9.648ZM551.18 4.72H552.18V2.18641L550.45 4.037L551.18 4.72ZM541.812 46V1.2H539.812V46H541.812ZM540.812 2.2H560.204V0.199997H540.812V2.2ZM560.204 2.2C564.107 2.2 567.415 2.84384 570.157 4.09391L570.987 2.27409C567.926 0.878822 564.322 0.199997 560.204 0.199997V2.2ZM570.168 4.09892C572.909 5.30805 574.99 7.04287 576.453 9.29647L578.131 8.20753C576.436 5.59712 574.038 3.61994 570.976 2.26908L570.168 4.09892ZM576.453 9.29647C577.91 11.5414 578.66 14.2465 578.66 17.456H580.66C580.66 13.9242 579.831 10.8266 578.131 8.20753L576.453 9.29647ZM578.66 17.456C578.66 20.62 577.912 23.3046 576.453 25.5515L578.131 26.6405C579.83 24.0234 580.66 20.948 580.66 17.456H578.66ZM576.453 25.5515C574.988 27.8081 572.903 29.5662 570.157 30.8181L570.987 32.6379C574.043 31.2444 576.438 29.2479 578.131 26.6405L576.453 25.5515ZM570.168 30.8131C567.423 32.0242 564.111 32.648 560.204 32.648V34.648C564.318 34.648 567.918 33.9918 570.976 32.6429L570.168 30.8131ZM560.204 32.648H546.572V34.648H560.204V32.648ZM547.284 34.3502L551.892 29.6782L550.468 28.2738L545.86 32.9458L547.284 34.3502ZM550.18 28.976V46H552.18V28.976H550.18ZM551.18 45H540.812V47H551.18V45ZM551.91 29.445L547.302 24.517L545.842 25.883L550.45 30.811L551.91 29.445ZM546.572 26.2H559.628V24.2H546.572V26.2ZM559.628 26.2C562.945 26.2 565.615 25.4959 567.45 23.9084L566.142 22.3956C564.82 23.5387 562.711 24.2 559.628 24.2V26.2ZM567.45 23.9084C569.286 22.3209 570.164 20.1253 570.164 17.456H568.164C568.164 19.6507 567.464 21.2524 566.142 22.3956L567.45 23.9084ZM570.164 17.456C570.164 14.7503 569.29 12.5306 567.45 10.9396L566.142 12.4524C567.46 13.5921 568.164 15.2124 568.164 17.456H570.164ZM567.45 10.9396C565.615 9.35206 562.945 8.648 559.628 8.648V10.648C562.711 10.648 564.82 11.3093 566.142 12.4524L567.45 10.9396ZM559.628 8.648H546.572V10.648H559.628V8.648ZM547.302 10.331L551.91 5.40299L550.45 4.037L545.842 8.96501L547.302 10.331ZM550.18 4.72V30.128H552.18V4.72H550.18Z" fill="#0296E5"/>
</svg>
